<svg width="123" height="15" viewBox="0 0 123 15" fill="none" xmlns="http://www.w3.org/2000/svg">
<path d="M67.7383 14.48V0.47998H70.4783L75.5583 8.75998L73.7783 8.73998L78.9383 0.47998H81.5783V14.48H78.6383V9.73998C78.6383 8.52665 78.665 7.43331 78.7183 6.45998C78.785 5.48665 78.8916 4.52665 79.0383 3.57998L79.3783 4.51998L75.2783 10.86H73.9383L69.9383 4.55998L70.2583 3.57998C70.4183 4.47331 70.525 5.39331 70.5783 6.33998C70.645 7.28665 70.6783 8.41998 70.6783 9.73998V14.48H67.7383Z" fill="white" />
<path d="M55.8428 14.48V0.47998H65.2828V3.11998H58.7828V11.84H65.4228V14.48H55.8428ZM57.2428 8.61998V6.05998H64.3228V8.61998H57.2428Z" fill="white" />
<path d="M48.5662 14.6802C47.2595 14.6802 46.1395 14.4469 45.2062 13.9802C44.2862 13.5002 43.4928 12.8069 42.8262 11.9002L44.7062 9.7802C45.3595 10.6869 46.0062 11.3069 46.6462 11.6402C47.2995 11.9602 47.9995 12.1202 48.7462 12.1202C49.1595 12.1202 49.5262 12.0602 49.8462 11.9402C50.1795 11.8202 50.4395 11.6535 50.6262 11.4402C50.8262 11.2269 50.9262 10.9802 50.9262 10.7002C50.9262 10.4869 50.8795 10.2935 50.7862 10.1202C50.6928 9.93353 50.5595 9.77353 50.3862 9.6402C50.2128 9.49353 50.0062 9.36686 49.7662 9.2602C49.5262 9.1402 49.2595 9.0402 48.9662 8.9602C48.6728 8.8802 48.3528 8.80686 48.0062 8.7402C47.2595 8.5802 46.6062 8.37353 46.0462 8.1202C45.4862 7.86686 45.0195 7.5602 44.6462 7.2002C44.2728 6.8402 43.9928 6.42686 43.8062 5.9602C43.6328 5.4802 43.5462 4.94686 43.5462 4.3602C43.5462 3.53353 43.7795 2.81353 44.2462 2.2002C44.7128 1.57353 45.3328 1.08686 46.1062 0.740196C46.8795 0.380195 47.7328 0.200195 48.6662 0.200195C49.9328 0.200195 50.9728 0.413529 51.7862 0.840195C52.6128 1.26686 53.2728 1.86686 53.7662 2.6402L51.8462 4.5202C51.4328 3.94686 50.9595 3.51353 50.4262 3.2202C49.8928 2.92686 49.3195 2.7802 48.7062 2.7802C48.2795 2.7802 47.8995 2.8402 47.5662 2.9602C47.2462 3.06686 46.9995 3.23353 46.8262 3.4602C46.6528 3.67353 46.5662 3.92686 46.5662 4.2202C46.5662 4.4602 46.6262 4.67353 46.7462 4.8602C46.8662 5.04686 47.0328 5.21353 47.2462 5.3602C47.4728 5.49353 47.7462 5.61353 48.0662 5.7202C48.3862 5.82686 48.7395 5.91353 49.1262 5.9802C49.8595 6.12686 50.5195 6.32686 51.1062 6.5802C51.6928 6.8202 52.1928 7.11353 52.6062 7.4602C53.0328 7.80686 53.3595 8.20686 53.5862 8.6602C53.8128 9.11353 53.9262 9.6202 53.9262 10.1802C53.9262 11.1269 53.6995 11.9335 53.2462 12.6002C52.7928 13.2669 52.1662 13.7802 51.3662 14.1402C50.5662 14.5002 49.6328 14.6802 48.5662 14.6802Z" fill="white" />
<path d="M35.6642 14.6C34.5308 14.6 33.5175 14.3666 32.6242 13.9C31.7442 13.42 31.0508 12.7666 30.5442 11.94C30.0375 11.1 29.7842 10.1533 29.7842 9.09996V0.459961H32.7842V8.91996C32.7842 9.47996 32.9108 9.98663 33.1642 10.44C33.4308 10.88 33.7842 11.2333 34.2242 11.5C34.6642 11.7666 35.1442 11.9 35.6642 11.9C36.2108 11.9 36.7042 11.7666 37.1442 11.5C37.5975 11.2333 37.9508 10.88 38.2042 10.44C38.4708 9.98663 38.6042 9.47996 38.6042 8.91996V0.459961H41.5042V9.09996C41.5042 10.1533 41.2508 11.1 40.7442 11.94C40.2508 12.7666 39.5642 13.42 38.6842 13.9C37.8042 14.3666 36.7975 14.6 35.6642 14.6Z" fill="white" />
<path d="M20.8886 14.6802C19.8619 14.6802 18.9086 14.5002 18.0286 14.1402C17.1619 13.7802 16.4086 13.2802 15.7686 12.6402C15.1419 11.9869 14.6486 11.2202 14.2886 10.3402C13.9419 9.4602 13.7686 8.49353 13.7686 7.4402C13.7686 6.4002 13.9419 5.4402 14.2886 4.5602C14.6486 3.6802 15.1419 2.91353 15.7686 2.2602C16.4086 1.60686 17.1619 1.1002 18.0286 0.740196C18.9086 0.380195 19.8619 0.200195 20.8886 0.200195C21.9152 0.200195 22.8552 0.380195 23.7086 0.740196C24.5752 1.1002 25.3286 1.60686 25.9686 2.2602C26.6086 2.91353 27.1019 3.68686 27.4486 4.5802C27.8086 5.4602 27.9886 6.41353 27.9886 7.4402C27.9886 8.4802 27.8086 9.4402 27.4486 10.3202C27.1019 11.2002 26.6086 11.9669 25.9686 12.6202C25.3286 13.2735 24.5752 13.7802 23.7086 14.1402C22.8552 14.5002 21.9152 14.6802 20.8886 14.6802ZM20.8886 11.8402C21.4752 11.8402 22.0152 11.7335 22.5086 11.5202C23.0019 11.2935 23.4286 10.9869 23.7886 10.6002C24.1619 10.2002 24.4486 9.73353 24.6486 9.2002C24.8486 8.66686 24.9486 8.0802 24.9486 7.4402C24.9486 6.81353 24.8486 6.23353 24.6486 5.7002C24.4486 5.16686 24.1619 4.7002 23.7886 4.3002C23.4286 3.9002 23.0019 3.59353 22.5086 3.3802C22.0152 3.15353 21.4752 3.0402 20.8886 3.0402C20.3019 3.0402 19.7552 3.15353 19.2486 3.3802C18.7552 3.59353 18.3219 3.9002 17.9486 4.3002C17.5886 4.68686 17.3086 5.15353 17.1086 5.7002C16.9086 6.23353 16.8086 6.8202 16.8086 7.4602C16.8086 8.3002 16.9819 9.05353 17.3286 9.7202C17.6886 10.3735 18.1686 10.8935 18.7686 11.2802C19.3819 11.6535 20.0886 11.8402 20.8886 11.8402Z" fill="white" />
<path d="M8.84 14.48V0.47998H11.84V14.48H8.84ZM0 14.48V0.47998H3V14.48H0ZM1.22 8.87998V6.11998H10.36V8.87998H1.22Z" fill="white" />
<path d="M110.2 14.4805V0.480469H115.96C116.974 0.480469 117.9 0.653802 118.74 1.00047C119.58 1.3338 120.3 1.8138 120.9 2.44047C121.5 3.0538 121.96 3.7938 122.28 4.66047C122.6 5.5138 122.76 6.4538 122.76 7.48047C122.76 8.52047 122.6 9.46714 122.28 10.3205C121.96 11.1738 121.5 11.9138 120.9 12.5405C120.3 13.1538 119.58 13.6338 118.74 13.9805C117.914 14.3138 116.987 14.4805 115.96 14.4805H110.2ZM113.2 12.2805L112.88 11.7805H115.86C116.46 11.7805 116.994 11.6805 117.46 11.4805C117.94 11.2805 118.347 10.9938 118.68 10.6205C119.027 10.2338 119.287 9.78047 119.46 9.26047C119.634 8.72714 119.72 8.1338 119.72 7.48047C119.72 6.82714 119.634 6.24047 119.46 5.72047C119.287 5.18714 119.027 4.7338 118.68 4.36047C118.347 3.9738 117.94 3.68047 117.46 3.48047C116.994 3.28047 116.46 3.18047 115.86 3.18047H112.82L113.2 2.72047V12.2805Z" fill="white" />
<path fill-rule="evenodd" clip-rule="evenodd" d="M90.2997 -2.09808e-05C89.273 -2.09808e-05 88.3197 0.17998 87.4397 0.53998C86.573 0.89998 85.8197 1.39998 85.1797 2.03998C84.553 2.69331 84.0597 3.45998 83.6997 4.33998C83.353 5.21998 83.1797 6.18665 83.1797 7.23998C83.1797 8.27998 83.353 9.23998 83.6997 10.12C84.0597 11 84.553 11.7666 85.1797 12.42C85.8197 13.0733 86.573 13.58 87.4397 13.94C88.3197 14.3 89.273 14.48 90.2997 14.48C91.3264 14.48 92.2664 14.3 93.1197 13.94C93.9864 13.58 94.7397 13.0733 95.3797 12.42C96.0197 11.7666 96.513 10.9933 96.8597 10.1C97.2179 9.22427 97.3979 8.27593 97.3997 7.25498H97.42L97.4199 7.21998C97.4199 6.37998 97.5932 5.62665 97.9399 4.95998C98.2999 4.30665 98.7799 3.78665 99.3799 3.39998C99.9932 3.02665 100.7 2.83998 101.5 2.83998C102.087 2.83998 102.627 2.94665 103.12 3.15998C103.613 3.38665 104.04 3.69331 104.4 4.07998C104.773 4.47998 105.06 4.94665 105.26 5.47998C105.46 6.01331 105.56 6.59998 105.56 7.23998C105.56 7.86665 105.46 8.44665 105.26 8.97998C105.06 9.51331 104.773 9.97998 104.4 10.38C104.04 10.78 103.613 11.0866 103.12 11.3C102.627 11.5266 102.087 11.64 101.5 11.64C100.919 11.64 100.377 11.5289 99.8749 11.3067C99.5026 12.2587 98.9988 13.096 98.3635 13.8184C98.4543 13.8606 98.5464 13.9012 98.6399 13.94C99.5199 14.3 100.473 14.48 101.5 14.48C102.527 14.48 103.467 14.3 104.32 13.94C105.187 13.58 105.94 13.0733 106.58 12.42C107.22 11.7666 107.713 10.9933 108.06 10.1C108.42 9.21998 108.6 8.26665 108.6 7.23998C108.6 6.19998 108.42 5.23998 108.06 4.35998C107.713 3.47998 107.22 2.71331 106.58 2.05998C105.94 1.40665 105.187 0.89998 104.32 0.53998C103.467 0.17998 102.527 -2.09808e-05 101.5 -2.09808e-05C100.473 -2.09808e-05 99.5199 0.17998 98.6399 0.53998C97.7732 0.89998 97.0199 1.39998 96.3799 2.03998C95.7532 2.69331 95.2599 3.45998 94.8999 4.33998C94.5532 5.21998 94.3799 6.18665 94.3799 7.23998C94.3799 7.32046 94.3809 7.40046 94.383 7.47998H94.3547C94.3322 8.01539 94.2339 8.51539 94.0597 8.97998C93.8597 9.51331 93.573 9.97998 93.1997 10.38C92.8397 10.78 92.413 11.0866 91.9197 11.3C91.4264 11.5266 90.8864 11.64 90.2997 11.64C89.713 11.64 89.1664 11.5266 88.6597 11.3C88.1664 11.0866 87.733 10.78 87.3597 10.38C86.9997 9.99331 86.7197 9.52665 86.5197 8.97998C86.3197 8.44665 86.2197 7.85998 86.2197 7.21998C86.2197 6.37998 86.393 5.62665 86.7397 4.95998C87.0997 4.30665 87.5797 3.78665 88.1797 3.39998C88.793 3.02665 89.4997 2.83998 90.2997 2.83998C90.8864 2.83998 91.4264 2.94665 91.9197 3.15998L91.9197 3.16001C92.3076 2.23455 92.8067 1.40497 93.4169 0.671256C93.3193 0.625522 93.2203 0.581763 93.1197 0.53998C92.2664 0.17998 91.3264 -2.09808e-05 90.2997 -2.09808e-05Z" fill="white" />
</svg>
