<svg width="26" height="15" viewBox="0 0 26 15" fill="none" xmlns="http://www.w3.org/2000/svg">
<path fill-rule="evenodd" clip-rule="evenodd" d="M7.2824 9.53674e-07C6.23231 9.53674e-07 5.25724 0.186466 4.35717 0.559394C3.47073 0.932322 2.70022 1.45028 2.04562 2.11326C1.40466 2.79006 0.900072 3.58426 0.531861 4.49586C0.177287 5.40746 0 6.40884 0 7.5C0 8.57735 0.177287 9.57182 0.531861 10.4834C0.900072 11.395 1.40466 12.1892 2.04562 12.866C2.70022 13.5428 3.47073 14.0677 4.35717 14.4406C5.25724 14.8135 6.23231 15 7.2824 15C8.33248 15 9.29392 14.8135 10.1667 14.4406C11.0532 14.0677 11.8237 13.5428 12.4783 12.866C13.1329 12.1892 13.6375 11.3881 13.992 10.4627C14.3584 9.55555 14.5425 8.57316 14.5443 7.51554H14.5651L14.565 7.47928C14.565 6.60912 14.7423 5.82873 15.0969 5.13812C15.4651 4.46133 15.956 3.92265 16.5697 3.5221C17.197 3.13536 17.9198 2.94199 18.7381 2.94199C19.3381 2.94199 19.8904 3.05249 20.395 3.27348C20.8996 3.50829 21.336 3.82597 21.7042 4.22652C22.0861 4.64088 22.3793 5.12431 22.5838 5.6768C22.7884 6.22928 22.8907 6.83702 22.8907 7.5C22.8907 8.14917 22.7884 8.75 22.5838 9.30249C22.3793 9.85497 22.0861 10.3384 21.7042 10.7528C21.336 11.1671 20.8996 11.4848 20.395 11.7058C19.8904 11.9406 19.3381 12.058 18.7381 12.058C18.1439 12.058 17.5899 11.9429 17.076 11.7127C16.6952 12.699 16.1799 13.5663 15.5301 14.3147C15.623 14.3584 15.7172 14.4004 15.8128 14.4406C16.7129 14.8135 17.688 15 18.7381 15C19.7881 15 20.7496 14.8135 21.6224 14.4406C22.5088 14.0677 23.2793 13.5428 23.9339 12.866C24.5885 12.1892 25.0931 11.3881 25.4477 10.4627C25.8159 9.55111 26 8.56354 26 7.5C26 6.42265 25.8159 5.42818 25.4477 4.51658C25.0931 3.60497 24.5885 2.81078 23.9339 2.13398C23.2793 1.45718 22.5088 0.932322 21.6224 0.559394C20.7496 0.186466 19.7881 9.53674e-07 18.7381 9.53674e-07C17.688 9.53674e-07 16.7129 0.186466 15.8128 0.559394C14.9264 0.932322 14.1559 1.45028 13.5013 2.11326C12.8603 2.79006 12.3557 3.58426 11.9875 4.49586C11.6329 5.40746 11.4557 6.40884 11.4557 7.5C11.4557 7.58337 11.4567 7.66624 11.4588 7.74862H11.4299C11.4069 8.30326 11.3064 8.82121 11.1282 9.30249C10.9236 9.85497 10.6304 10.3384 10.2485 10.7528C9.88033 11.1671 9.44394 11.4848 8.93935 11.7058C8.43476 11.9406 7.88245 12.058 7.2824 12.058C6.68235 12.058 6.12322 11.9406 5.60499 11.7058C5.10041 11.4848 4.65719 11.1671 4.27534 10.7528C3.90713 10.3522 3.62074 9.86879 3.41618 9.30249C3.21162 8.75 3.10934 8.14227 3.10934 7.47928C3.10934 6.60912 3.28663 5.82873 3.6412 5.13812C4.00941 4.46133 4.50036 3.92265 5.11404 3.5221C5.74137 3.13536 6.46415 2.94199 7.2824 2.94199C7.88245 2.94199 8.43476 3.05249 8.93935 3.27348L8.93941 3.27351C9.33612 2.31482 9.84655 1.45545 10.4707 0.695384C10.3709 0.648007 10.2696 0.602677 10.1667 0.559394C9.29392 0.186466 8.33248 9.53674e-07 7.2824 9.53674e-07Z" fill="black" style="fill:black;fill-opacity:1;"/>
</svg>
